<svg xmlns="http://www.w3.org/2000/svg" width="600" height="600" viewBox="0 0 600 600" version="1.1"><path d="M 273.750 128.689 C 260.859 128.966, 257 129.348, 257 130.348 C 257 132.083, 331.550 131.850, 333.290 130.110 C 334.103 129.297, 330.268 128.998, 318.950 128.993 C 310.452 128.989, 300.575 128.838, 297 128.658 C 293.425 128.477, 282.962 128.491, 273.750 128.689 M 285.500 338.946 L 282.500 339.577 285 340.275 C 288.589 341.277, 324.949 341.055, 322.460 340.047 C 319.885 339.003, 289.525 338.099, 285.500 338.946 M 278.750 410.747 C 286.038 410.918, 297.962 410.918, 305.250 410.747 C 312.538 410.577, 306.575 410.437, 292 410.437 C 277.425 410.437, 271.462 410.577, 278.750 410.747 M 185.133 448.133 C 183.949 450.983, 183.149 453.482, 183.354 453.687 C 183.559 453.893, 184.720 451.753, 185.933 448.933 C 187.147 446.113, 187.947 443.614, 187.713 443.379 C 187.478 443.145, 186.317 445.284, 185.133 448.133 M 394.433 461.966 C 398.596 462.790, 416.774 463.403, 415.972 462.692 C 415.712 462.462, 409.875 462.030, 403 461.731 C 395.993 461.426, 392.228 461.530, 394.433 461.966" stroke="none" fill="#484142" fill-rule="evenodd"/><path d="M 332.719 130.614 C 332.382 130.952, 315.441 131.317, 295.073 131.427 C 274.706 131.536, 257.840 131.827, 257.593 132.074 C 257.346 132.321, 263.074 144.472, 270.322 159.078 C 277.570 173.683, 290.771 200.453, 299.657 218.566 C 308.544 236.680, 323.432 267.025, 332.741 286 C 342.051 304.975, 357.676 336.700, 367.464 356.500 C 377.252 376.300, 387.212 396.663, 389.597 401.750 L 393.934 411 376.132 411 L 358.330 411 354.726 403.097 C 352.744 398.750, 350.644 394.898, 350.061 394.538 C 349.477 394.177, 349 393.010, 349 391.944 C 349 390.878, 347.445 386.742, 345.545 382.753 C 343.645 378.764, 338.461 367.646, 334.026 358.047 C 326.038 340.759, 324.909 338.979, 322 339.086 C 321.011 339.122, 321.181 339.433, 322.500 340 C 324.918 341.039, 288.689 341.305, 285 340.275 L 282.500 339.577 285.500 338.907 C 287.150 338.538, 278.938 338.183, 267.250 338.118 C 253.889 338.044, 246 337.630, 246 337.004 C 246 335.729, 259.160 299.890, 266.564 281 C 274.171 261.594, 277.989 250.852, 277.995 248.835 C 278.002 246.606, 272.267 246.209, 228.953 245.440 L 194.405 244.827 186.537 261.164 C 182.209 270.149, 175.868 283.350, 172.445 290.500 C 169.023 297.650, 155.562 325.550, 142.533 352.500 C 129.504 379.450, 116.080 407.350, 112.703 414.500 C 109.325 421.650, 102.386 435.951, 97.281 446.279 C 92.176 456.608, 88 465.950, 88 467.039 C 88 468.989, 88.736 469.015, 135.735 468.760 L 183.469 468.500 194.485 442.727 L 205.500 416.954 279.667 417.227 C 320.459 417.377, 354.109 417.774, 354.444 418.110 C 354.779 418.445, 357.243 423.620, 359.920 429.610 C 371.133 454.702, 376.275 465.582, 377.553 466.918 C 378.688 468.106, 389.884 468.413, 446.454 468.805 C 512.141 469.260, 514 469.221, 513.999 467.386 C 513.998 466.349, 510.359 458.750, 505.912 450.500 C 501.465 442.250, 494.889 429.875, 491.298 423 C 482.146 405.478, 468.873 380.693, 468.002 379.500 C 467.601 378.950, 464.797 373.775, 461.771 368 C 458.745 362.225, 453.440 352.100, 449.982 345.500 C 446.524 338.900, 439.106 324.950, 433.497 314.500 C 427.889 304.050, 420.018 289.200, 416.007 281.500 C 411.996 273.800, 407.044 264.575, 405.003 261 C 401.157 254.263, 395.430 243.462, 382.998 219.500 C 379.004 211.800, 375.412 205.050, 375.016 204.500 C 374.216 203.387, 371.230 197.805, 352.013 161.500 C 334.704 128.799, 334.639 128.694, 332.719 130.614 M 266.185 136.750 C 266.379 137.162, 269.514 143.575, 273.152 151 C 276.791 158.425, 283.448 172.099, 287.947 181.387 C 292.650 191.098, 296.498 197.897, 297.001 197.387 C 297.842 196.534, 305.586 181.825, 314.578 164 C 320.242 152.772, 327 138.030, 327 136.901 C 327 136.386, 313.891 136, 296.417 136 C 279.596 136, 265.992 136.338, 266.185 136.750 M 317.190 172.365 C 308.286 190.139, 301 205.245, 301 205.933 C 301 207.622, 307.144 220.254, 364.263 336 C 394.029 396.318, 403 414.972, 403 416.543 C 403 417.772, 399.787 418, 382.500 418 C 371.225 418, 362.020 418.337, 362.044 418.750 C 362.068 419.163, 366.286 428.725, 371.417 440 L 380.746 460.500 386.623 461.332 C 394.408 462.434, 505.001 463.345, 504.996 462.307 C 504.994 461.863, 504.030 459.925, 502.853 458 C 501.677 456.075, 497.113 447.525, 492.713 439 C 483.736 421.609, 472.147 400.019, 470.973 398.500 C 470.548 397.950, 465.598 388.530, 459.972 377.566 C 454.346 366.602, 447.496 353.552, 444.749 348.566 C 439.956 339.866, 434.059 328.811, 413.245 289.500 C 408.003 279.600, 402.039 268.575, 399.991 265 C 397.943 261.425, 393.260 252.559, 389.584 245.298 C 385.908 238.037, 380.718 228.137, 378.050 223.298 C 375.382 218.459, 371.340 211.125, 369.067 207 C 366.795 202.875, 361.628 192.975, 357.586 185 C 351.671 173.329, 334.439 141.216, 333.586 140.274 C 333.473 140.149, 326.095 154.590, 317.190 172.365 M 193.650 261.090 C 189.478 270.049, 181.128 287.065, 177.746 293.500 C 175.046 298.637, 153 344.917, 153 345.448 C 153 345.725, 143.404 365.650, 131.676 389.726 C 119.948 413.802, 108.811 436.850, 106.926 440.945 C 105.042 445.039, 102.062 451.328, 100.305 454.919 C 98.003 459.625, 97.441 461.655, 98.296 462.183 C 98.948 462.586, 117.338 462.944, 139.163 462.978 L 178.844 463.039 182.535 455.796 C 184.565 451.813, 187.358 445.185, 188.740 441.068 C 190.123 436.951, 193.569 428.389, 196.398 422.041 L 201.541 410.500 276.383 410.893 L 351.226 411.287 350.516 409.051 C 350.126 407.822, 348.500 404.182, 346.903 400.964 C 345.307 397.745, 344 394.904, 344 394.649 C 344 394.393, 341.917 389.756, 339.372 384.342 C 336.827 378.929, 331.894 368.200, 328.410 360.500 L 322.076 346.500 304.288 345.751 C 294.505 345.338, 275.700 344.663, 262.500 344.251 L 238.500 343.500 238.642 340.500 C 238.720 338.850, 245.614 319.275, 253.961 297 C 262.308 274.725, 269.384 255.713, 269.685 254.750 C 270.185 253.154, 269.234 253, 258.867 252.998 C 252.615 252.997, 236.370 252.700, 222.766 252.338 L 198.032 251.681 193.650 261.090" stroke="none" fill="#FFFFFF" fill-rule="evenodd"/></svg>